<?xml version="1.0" encoding="utf-8"?>
<!-- Generator: Adobe Illustrator 18.1.0, SVG Export Plug-In . SVG Version: 6.00 Build 0)  -->
<!DOCTYPE svg PUBLIC "-//W3C//DTD SVG 1.1//EN" "http://www.w3.org/Graphics/SVG/1.1/DTD/svg11.dtd">
<svg version="1.1" xmlns="http://www.w3.org/2000/svg" xmlns:xlink="http://www.w3.org/1999/xlink" x="0px" y="0px"
	 viewBox="0 0 300 206" enable-background="new 0 0 300 206" xml:space="preserve">
<g id="Screen">
	<g>
		<path fill="#FFFFFF" d="M127.6,168.3h44.8v4h-44.8V168.3z M32.4,35.4h235.1v125.9H32.4V35.4z M23.1,179h253.8V27H23.1V179z"/>
		<rect x="36.6" y="39.6" fill="#FFFFFF" width="97" height="97.7"/>
		<rect x="137.7" y="39.6" fill="#FFFFFF" width="125.7" height="97.7"/>
		<rect x="36.7" y="141.6" fill="#FFFFFF" width="226.8" height="15.3"/>
		<g>
			<rect x="43.9" y="147.4" fill="#FBC200" width="35.6" height="3.6"/>
			<rect x="99.3" y="147.4" fill="#FBC200" width="68.7" height="3.6"/>
			<rect x="174.4" y="147.4" fill="#FBC200" width="13.3" height="3.6"/>
			<rect x="193.5" y="147.4" fill="#FBC200" width="23.8" height="3.6"/>
			<rect x="223.3" y="147.4" fill="#FBC200" width="36.3" height="3.6"/>
			<rect x="85.1" y="147.4" fill="#FBC200" width="8.7" height="3.6"/>
		</g>
		<path fill="#FBC200" d="M85.1,63.1c-14,0-25.3,11.3-25.3,25.3s11.3,25.3,25.3,25.3s25.3-11.3,25.3-25.3S99.1,63.1,85.1,63.1z
			 M98,89.8l-19.4,9.1c-1.6,0.7-2.8-0.1-2.8-1.8V79.8c0-1.7,1.3-2.5,2.8-1.8L98,87.1C99.6,87.8,99.6,89,98,89.8z"/>
		<g>
			<polyline fill="#FBC200" points="173.5,117.1 230.9,117.1 218.7,89.6 206.9,108.9 187.6,72.9 170.3,117.1 187.6,117.1 			"/>
			<circle fill="#FBC200" cx="213.5" cy="66.4" r="6.6"/>
		</g>
	</g>
</g>
<g id="Box" display="none">
	<g display="inline">
		<g>
			<path fill="#FFFFFF" d="M112.1,17.1c0.9,0.1,1.9,0.2,2.8,0.3c14.2,1.1,27.2,5.8,38.8,14.1c3.4,2.4,6.5,5.2,9.7,7.7
				c-2.7,2.8-5.3,5.4-7.8,8c-13.3-12.6-29.1-19.2-47.6-19c-18.4,0.2-34.1,7.3-47.3,20.3c-2.6-2.6-5.2-5.1-7.7-7.7l0-0.2
				c0.3-0.2,0.5-0.4,0.8-0.6c2.9-2.5,5.7-5.2,8.7-7.5c11.4-8.5,24.2-13.5,38.4-15c0.9-0.1,1.9-0.2,2.8-0.4L112.1,17.1z"/>
			<path fill="#FFFFFF" d="M76.6,63.7c-2.6-2.6-5.2-5.1-7.8-7.6c20.3-21.6,56.6-23.2,79-1c-2.5,2.6-5.1,5.2-7.6,7.8
				c-8.8-8.4-19.5-12.9-31.9-12.7C95.9,50.3,85.3,55,76.6,63.7"/>
			<path fill="#FFFFFF" d="M92.3,79c-2.7-2.6-5.3-5.1-7.9-7.6c12.8-13.5,34.8-13.9,48.1-0.6c-2.5,2.6-5.1,5.2-7.7,7.8
				c-4.5-4.3-10-6.6-16.3-6.5C102.2,72.2,96.8,74.6,92.3,79"/>
		</g>
		<g>
			<path fill="#FFFFFF" d="M186.6,161.1V106c0-1.4-1.2-2.6-2.6-2.6H182c-1.4,0-2.6,1.2-2.6,2.6v55.1h-4.6v-57c0-4.2-2.6-7.7-5.9-7.7
				H47.2c-3.2,0-5.9,3.5-5.9,7.7v71.4h129h4.4h16v-14.4H186.6z M53,168.1c-1.7,0-3.2-1.4-3.2-3.2s1.4-3.2,3.2-3.2
				c1.7,0,3.2,1.4,3.2,3.2S54.7,168.1,53,168.1z"/>
			<rect x="41.3" y="179.1" fill="#FFFFFF" width="133.5" height="9.8"/>
		</g>
	</g>
	<path display="inline" fill="#FFFFFF" d="M253.2,99.9c-1.8-0.8-3.2,0.1-3.2,2v19.4c0,1.9,1.4,2.8,3.2,2l21.8-10.2
		c1.8-0.8,1.8-2.2,0-3L253.2,99.9z"/>
</g>
<g id="Cloud" display="none">
	<g display="inline">
		<path fill="#FFFFFF" d="M172.8,81.7c-2.7-12-9.1-23-18.3-31.4c-11.2-10.3-25.8-15.9-41.1-15.9c-14.5,0-28.6,5.2-39.6,14.7
			c-9,7.7-15.5,17.9-18.8,29.2C29.7,78.7,9.2,99.5,9.2,124.9c0,25.8,21,46.7,46.7,46.7h115c24.8,0,45-20.2,45-45
			C215.9,102.5,196.8,82.7,172.8,81.7z"/>
	</g>
	<path display="inline" fill="#FFFFFF" d="M253.2,99.9c-1.8-0.8-3.2,0.1-3.2,2v19.4c0,1.9,1.4,2.8,3.2,2l21.8-10.2
		c1.8-0.8,1.8-2.2,0-3L253.2,99.9z"/>
</g>
<g id="Computer" display="none">
	<g display="inline">
		<g>
			<path fill="#C2E4EE" d="M27.9,114.5v11c0,4.2,3.4,7.7,7.7,7.7H194c4.2,0,7.7-3.4,7.7-7.7v-11H27.9z"/>
		</g>
		<polygon fill="#FFFFFF" points="128.9,133.1 115.1,133.1 101.3,133.1 96.9,153.1 115.1,153.1 133.3,153.1 		"/>
		<polygon fill="#FFFFFF" points="184.4,167.2 115.1,167.2 45.7,167.2 23.7,195.6 23.7,199.2 206.4,199.2 206.4,195.6 		"/>
		<polygon fill="#FBC200" points="121,188.7 115.1,188.7 109.2,188.7 107.3,193.2 115.1,193.2 122.8,193.2 		"/>
		<polygon fill="#FBC200" points="173.2,172.4 115.1,172.4 114.8,172.4 56.7,172.4 50,184.9 114.8,184.9 115.1,184.9 179.9,184.9 		
			"/>
		<path fill="#FFFFFF" d="M194,6.8H35.6c-4.2,0-7.7,3.4-7.7,7.7v111c0,4.2,3.4,7.7,7.7,7.7H194c4.2,0,7.7-3.4,7.7-7.7v-111
			C201.7,10.2,198.2,6.8,194,6.8z M195.1,111.8H34.5V15.1h160.6V111.8z"/>
		<rect x="39.4" y="20.6" fill="#FFFFFF" width="150" height="85.9"/>
		<rect x="101.3" y="120.6" fill="#FBC200" width="27.5" height="3.3"/>
		<path fill="#FBC200" d="M114.4,38.2c-14,0-25.3,11.3-25.3,25.3s11.3,25.3,25.3,25.3s25.3-11.3,25.3-25.3S128.4,38.2,114.4,38.2z
			 M127.3,64.8L107.9,74c-1.6,0.7-2.8-0.1-2.8-1.8V54.9c0-1.7,1.3-2.5,2.8-1.8l19.4,9.1C128.9,62.9,128.9,64.1,127.3,64.8z"/>
	</g>
	<path display="inline" fill="#FFFFFF" d="M253.2,99.9c-1.8-0.8-3.2,0.1-3.2,2v19.4c0,1.9,1.4,2.8,3.2,2l21.8-10.2
		c1.8-0.8,1.8-2.2,0-3L253.2,99.9z"/>
</g>
</svg>
