<?xml version="1.0" encoding="utf-8"?>
<!-- Generator: Adobe Illustrator 18.1.0, SVG Export Plug-In . SVG Version: 6.00 Build 0)  -->
<!DOCTYPE svg PUBLIC "-//W3C//DTD SVG 1.1//EN" "http://www.w3.org/Graphics/SVG/1.1/DTD/svg11.dtd">
<svg version="1.1" xmlns="http://www.w3.org/2000/svg" xmlns:xlink="http://www.w3.org/1999/xlink" x="0px" y="0px"
	 viewBox="0 0 494 206" enable-background="new 0 0 494 206" xml:space="preserve">
<g id="Slit_Content">
	<g>
		<g>
			<path fill="#FBC200" d="M73.8,53.7v98.6h165.3V53.7H73.8z M166.8,148.3h-20.6v-2.5h20.6V148.3z M228.3,141.5H84.6v-77h143.7
				V141.5z"/>
		</g>
		<g>
			<path fill="#FBC200" d="M254.9,53.7v98.6h165.3V53.7H254.9z M347.9,148.3h-20.6v-2.5h20.6V148.3z M409.4,141.5H265.7v-77h143.7
				V141.5z"/>
		</g>
		<g>
			<g>
				<path d="M100.1,98.5h-6v-1.1l3.8-5.5h-3.7v-1.4h5.8v1.1l-3.8,5.5h3.9V98.5z"/>
			</g>
			<g>
				<path d="M106.8,95.4c0,1-0.3,1.8-0.8,2.3s-1.3,0.8-2.2,0.8c-0.6,0-1.1-0.1-1.6-0.4c-0.5-0.3-0.8-0.6-1-1.1
					c-0.2-0.5-0.4-1-0.4-1.7c0-1,0.3-1.8,0.8-2.3s1.3-0.8,2.2-0.8c0.6,0,1.1,0.1,1.6,0.4c0.4,0.3,0.8,0.6,1,1.1
					C106.7,94.2,106.8,94.8,106.8,95.4z M102.6,95.4c0,0.6,0.1,1.1,0.3,1.4c0.2,0.3,0.5,0.5,1,0.5c0.4,0,0.8-0.2,1-0.5
					c0.2-0.3,0.3-0.8,0.3-1.4c0-0.6-0.1-1.1-0.3-1.4c-0.2-0.3-0.5-0.5-1-0.5c-0.4,0-0.8,0.2-1,0.5C102.7,94.3,102.6,94.8,102.6,95.4
					z"/>
			</g>
			<g>
				<path d="M113.9,98.5h-1.7v-3.6c0-0.4-0.1-0.8-0.2-1c-0.2-0.2-0.4-0.3-0.8-0.3c-0.5,0-0.8,0.2-1,0.5c-0.2,0.3-0.3,0.8-0.3,1.6
					v2.9h-1.7v-6.1h1.3l0.2,0.8h0.1c0.2-0.3,0.4-0.5,0.8-0.7c0.3-0.2,0.7-0.2,1.1-0.2c0.7,0,1.3,0.2,1.6,0.6
					c0.4,0.4,0.6,0.9,0.6,1.7V98.5z"/>
			</g>
			<g>
				<path d="M118.4,98.6c-1,0-1.8-0.3-2.3-0.8c-0.6-0.5-0.8-1.3-0.8-2.3c0-1,0.3-1.8,0.8-2.4c0.5-0.6,1.2-0.8,2.1-0.8
					c0.9,0,1.5,0.2,2,0.7c0.5,0.5,0.7,1.2,0.7,2v0.8h-4c0,0.5,0.2,0.8,0.4,1.1c0.3,0.3,0.6,0.4,1.1,0.4c0.4,0,0.7,0,1-0.1
					c0.3-0.1,0.7-0.2,1-0.4v1.3c-0.3,0.1-0.6,0.3-0.9,0.3C119.3,98.6,118.9,98.6,118.4,98.6z M118.2,93.4c-0.4,0-0.6,0.1-0.8,0.3
					c-0.2,0.2-0.3,0.5-0.3,1h2.3c0-0.4-0.1-0.7-0.3-1C118.8,93.5,118.5,93.4,118.2,93.4z"/>
			</g>
			<g>
				<path d="M128.9,98.5h-1.7v-4.6l0-0.8l0-0.8c-0.3,0.3-0.5,0.5-0.6,0.6l-0.9,0.7l-0.8-1l2.6-2.1h1.4V98.5z"/>
			</g>
		</g>
		<g>
			<g>
				<path d="M325.4,98.5h-6v-1.1l3.8-5.5h-3.7v-1.4h5.8v1.1l-3.8,5.5h3.9V98.5z"/>
			</g>
			<g>
				<path d="M332.1,95.4c0,1-0.3,1.8-0.8,2.3c-0.5,0.6-1.3,0.8-2.2,0.8c-0.6,0-1.1-0.1-1.6-0.4c-0.5-0.3-0.8-0.6-1-1.1
					c-0.2-0.5-0.4-1-0.4-1.7c0-1,0.3-1.8,0.8-2.3s1.3-0.8,2.2-0.8c0.6,0,1.1,0.1,1.6,0.4c0.4,0.3,0.8,0.6,1,1.1
					C332,94.2,332.1,94.8,332.1,95.4z M327.8,95.4c0,0.6,0.1,1.1,0.3,1.4c0.2,0.3,0.5,0.5,1,0.5c0.4,0,0.8-0.2,1-0.5
					c0.2-0.3,0.3-0.8,0.3-1.4c0-0.6-0.1-1.1-0.3-1.4c-0.2-0.3-0.5-0.5-1-0.5c-0.4,0-0.8,0.2-1,0.5C327.9,94.3,327.8,94.8,327.8,95.4
					z"/>
			</g>
			<g>
				<path d="M339.1,98.5h-1.7v-3.6c0-0.4-0.1-0.8-0.2-1c-0.2-0.2-0.4-0.3-0.8-0.3c-0.5,0-0.8,0.2-1,0.5c-0.2,0.3-0.3,0.8-0.3,1.6
					v2.9h-1.7v-6.1h1.3l0.2,0.8h0.1c0.2-0.3,0.4-0.5,0.8-0.7c0.3-0.2,0.7-0.2,1.1-0.2c0.7,0,1.3,0.2,1.6,0.6
					c0.4,0.4,0.6,0.9,0.6,1.7V98.5z"/>
			</g>
			<g>
				<path d="M343.6,98.6c-1,0-1.8-0.3-2.3-0.8c-0.6-0.5-0.8-1.3-0.8-2.3c0-1,0.3-1.8,0.8-2.4c0.5-0.6,1.2-0.8,2.1-0.8
					c0.9,0,1.5,0.2,2,0.7c0.5,0.5,0.7,1.2,0.7,2v0.8h-4c0,0.5,0.2,0.8,0.4,1.1c0.3,0.3,0.6,0.4,1.1,0.4c0.4,0,0.7,0,1-0.1
					c0.3-0.1,0.7-0.2,1-0.4v1.3c-0.3,0.1-0.6,0.3-0.9,0.3C344.5,98.6,344.1,98.6,343.6,98.6z M343.4,93.4c-0.4,0-0.6,0.1-0.8,0.3
					c-0.2,0.2-0.3,0.5-0.3,1h2.3c0-0.4-0.1-0.7-0.3-1C344,93.5,343.8,93.4,343.4,93.4z"/>
			</g>
			<g>
				<path d="M354.2,98.5h-1.7v-4.6l0-0.8l0-0.8c-0.3,0.3-0.5,0.5-0.6,0.6l-0.9,0.7l-0.8-1l2.6-2.1h1.4V98.5z"/>
			</g>
		</g>
		<g>
			<g>
				<path d="M172,98.3h-6v-1.1l3.8-5.5h-3.7v-1.4h5.8v1.1l-3.8,5.5h3.9V98.3z"/>
			</g>
			<g>
				<path d="M178.7,95.2c0,1-0.3,1.8-0.8,2.3c-0.5,0.6-1.3,0.8-2.2,0.8c-0.6,0-1.1-0.1-1.6-0.4c-0.5-0.3-0.8-0.6-1-1.1
					c-0.2-0.5-0.4-1-0.4-1.7c0-1,0.3-1.8,0.8-2.3s1.3-0.8,2.2-0.8c0.6,0,1.1,0.1,1.6,0.4c0.4,0.3,0.8,0.6,1,1.1
					C178.6,94,178.7,94.6,178.7,95.2z M174.5,95.2c0,0.6,0.1,1.1,0.3,1.4c0.2,0.3,0.5,0.5,1,0.5c0.4,0,0.8-0.2,1-0.5
					c0.2-0.3,0.3-0.8,0.3-1.4c0-0.6-0.1-1.1-0.3-1.4c-0.2-0.3-0.5-0.5-1-0.5c-0.4,0-0.8,0.2-1,0.5C174.6,94.1,174.5,94.6,174.5,95.2
					z"/>
			</g>
			<g>
				<path d="M185.8,98.3h-1.7v-3.6c0-0.4-0.1-0.8-0.2-1c-0.2-0.2-0.4-0.3-0.8-0.3c-0.5,0-0.8,0.2-1,0.5c-0.2,0.3-0.3,0.8-0.3,1.6
					v2.9h-1.7v-6.1h1.3l0.2,0.8h0.1c0.2-0.3,0.4-0.5,0.8-0.7c0.3-0.2,0.7-0.2,1.1-0.2c0.7,0,1.3,0.2,1.6,0.6
					c0.4,0.4,0.6,0.9,0.6,1.7V98.3z"/>
			</g>
			<g>
				<path d="M190.3,98.4c-1,0-1.8-0.3-2.3-0.8c-0.6-0.5-0.8-1.3-0.8-2.3c0-1,0.3-1.8,0.8-2.4c0.5-0.6,1.2-0.8,2.1-0.8
					c0.9,0,1.5,0.2,2,0.7c0.5,0.5,0.7,1.2,0.7,2v0.8h-4c0,0.5,0.2,0.8,0.4,1.1c0.3,0.3,0.6,0.4,1.1,0.4c0.4,0,0.7,0,1-0.1
					c0.3-0.1,0.7-0.2,1-0.4V98c-0.3,0.1-0.6,0.3-0.9,0.3C191.2,98.4,190.8,98.4,190.3,98.4z M190.1,93.2c-0.4,0-0.6,0.1-0.8,0.3
					c-0.2,0.2-0.3,0.5-0.3,1h2.3c0-0.4-0.1-0.7-0.3-1C190.7,93.3,190.4,93.2,190.1,93.2z"/>
			</g>
			<g>
				<path d="M202.3,98.3h-5.6v-1.2l2-2c0.6-0.6,1-1,1.2-1.3c0.2-0.2,0.3-0.5,0.4-0.7c0.1-0.2,0.1-0.4,0.1-0.6c0-0.3-0.1-0.6-0.3-0.7
					c-0.2-0.2-0.4-0.2-0.7-0.2c-0.3,0-0.6,0.1-0.9,0.2c-0.3,0.1-0.6,0.3-0.9,0.6l-0.9-1.1c0.4-0.3,0.7-0.6,1-0.7
					c0.3-0.1,0.5-0.2,0.9-0.3c0.3-0.1,0.7-0.1,1-0.1c0.5,0,0.9,0.1,1.3,0.3c0.4,0.2,0.7,0.4,0.9,0.8c0.2,0.3,0.3,0.7,0.3,1.1
					c0,0.4-0.1,0.7-0.2,1c-0.1,0.3-0.3,0.7-0.6,1c-0.3,0.3-0.8,0.8-1.4,1.5l-1,1v0.1h3.5V98.3z"/>
			</g>
		</g>
		<g>
			<g>
				<path d="M292.1,136.1h-6V135l3.8-5.5h-3.7v-1.4h5.8v1.1l-3.8,5.5h3.9V136.1z"/>
			</g>
			<g>
				<path d="M298.8,133c0,1-0.3,1.8-0.8,2.3c-0.5,0.6-1.3,0.8-2.2,0.8c-0.6,0-1.1-0.1-1.6-0.4c-0.5-0.3-0.8-0.6-1-1.1
					c-0.2-0.5-0.4-1-0.4-1.7c0-1,0.3-1.8,0.8-2.3c0.5-0.6,1.3-0.8,2.2-0.8c0.6,0,1.1,0.1,1.6,0.4c0.4,0.3,0.8,0.6,1,1.1
					C298.7,131.8,298.8,132.4,298.8,133z M294.6,133c0,0.6,0.1,1.1,0.3,1.4c0.2,0.3,0.5,0.5,1,0.5c0.4,0,0.8-0.2,1-0.5
					c0.2-0.3,0.3-0.8,0.3-1.4c0-0.6-0.1-1.1-0.3-1.4c-0.2-0.3-0.5-0.5-1-0.5c-0.4,0-0.8,0.2-1,0.5C294.6,132,294.6,132.4,294.6,133z
					"/>
			</g>
			<g>
				<path d="M305.8,136.1h-1.7v-3.6c0-0.4-0.1-0.8-0.2-1c-0.2-0.2-0.4-0.3-0.8-0.3c-0.5,0-0.8,0.2-1,0.5c-0.2,0.3-0.3,0.8-0.3,1.6
					v2.9h-1.7V130h1.3l0.2,0.8h0.1c0.2-0.3,0.4-0.5,0.8-0.7c0.3-0.2,0.7-0.2,1.1-0.2c0.7,0,1.3,0.2,1.6,0.6c0.4,0.4,0.6,0.9,0.6,1.7
					V136.1z"/>
			</g>
			<g>
				<path d="M310.3,136.2c-1,0-1.8-0.3-2.3-0.8c-0.6-0.5-0.8-1.3-0.8-2.3c0-1,0.3-1.8,0.8-2.4c0.5-0.6,1.2-0.8,2.1-0.8
					c0.9,0,1.5,0.2,2,0.7c0.5,0.5,0.7,1.2,0.7,2v0.8h-4c0,0.5,0.2,0.8,0.4,1.1c0.3,0.3,0.6,0.4,1.1,0.4c0.4,0,0.7,0,1-0.1
					c0.3-0.1,0.7-0.2,1-0.4v1.3c-0.3,0.1-0.6,0.3-0.9,0.3C311.2,136.2,310.8,136.2,310.3,136.2z M310.1,131.1
					c-0.4,0-0.6,0.1-0.8,0.3c-0.2,0.2-0.3,0.5-0.3,1h2.3c0-0.4-0.1-0.7-0.3-1C310.7,131.2,310.5,131.1,310.1,131.1z"/>
			</g>
			<g>
				<path d="M322.3,136.1h-5.6v-1.2l2-2c0.6-0.6,1-1,1.2-1.3c0.2-0.2,0.3-0.5,0.4-0.7c0.1-0.2,0.1-0.4,0.1-0.6
					c0-0.3-0.1-0.6-0.3-0.7c-0.2-0.2-0.4-0.2-0.7-0.2c-0.3,0-0.6,0.1-0.9,0.2c-0.3,0.1-0.6,0.3-0.9,0.6l-0.9-1.1
					c0.4-0.3,0.7-0.6,1-0.7c0.3-0.1,0.5-0.2,0.9-0.3c0.3-0.1,0.7-0.1,1-0.1c0.5,0,0.9,0.1,1.3,0.3c0.4,0.2,0.7,0.4,0.9,0.8
					c0.2,0.3,0.3,0.7,0.3,1.1c0,0.4-0.1,0.7-0.2,1c-0.1,0.3-0.3,0.7-0.6,1s-0.8,0.8-1.4,1.5l-1,1v0.1h3.5V136.1z"/>
			</g>
		</g>
		<g>
			<g>
				<path d="M144.3,136.5h-6v-1.1l3.8-5.5h-3.7v-1.4h5.8v1.1l-3.8,5.5h3.9V136.5z"/>
			</g>
			<g>
				<path d="M151,133.4c0,1-0.3,1.8-0.8,2.3c-0.5,0.6-1.3,0.8-2.2,0.8c-0.6,0-1.1-0.1-1.6-0.4c-0.5-0.3-0.8-0.6-1-1.1
					c-0.2-0.5-0.4-1-0.4-1.7c0-1,0.3-1.8,0.8-2.3c0.5-0.6,1.3-0.8,2.2-0.8c0.6,0,1.1,0.1,1.6,0.4c0.4,0.3,0.8,0.6,1,1.1
					C150.9,132.2,151,132.8,151,133.4z M146.8,133.4c0,0.6,0.1,1.1,0.3,1.4c0.2,0.3,0.5,0.5,1,0.5c0.4,0,0.8-0.2,1-0.5
					c0.2-0.3,0.3-0.8,0.3-1.4c0-0.6-0.1-1.1-0.3-1.4c-0.2-0.3-0.5-0.5-1-0.5c-0.4,0-0.8,0.2-1,0.5
					C146.9,132.4,146.8,132.8,146.8,133.4z"/>
			</g>
			<g>
				<path d="M158.1,136.5h-1.7v-3.6c0-0.4-0.1-0.8-0.2-1c-0.2-0.2-0.4-0.3-0.8-0.3c-0.5,0-0.8,0.2-1,0.5c-0.2,0.3-0.3,0.8-0.3,1.6
					v2.9h-1.7v-6.1h1.3l0.2,0.8h0.1c0.2-0.3,0.4-0.5,0.8-0.7c0.3-0.2,0.7-0.2,1.1-0.2c0.7,0,1.3,0.2,1.6,0.6
					c0.4,0.4,0.6,0.9,0.6,1.7V136.5z"/>
			</g>
			<g>
				<path d="M162.6,136.6c-1,0-1.8-0.3-2.3-0.8c-0.6-0.5-0.8-1.3-0.8-2.3c0-1,0.3-1.8,0.8-2.4c0.5-0.6,1.2-0.8,2.1-0.8
					c0.9,0,1.5,0.2,2,0.7c0.5,0.5,0.7,1.2,0.7,2v0.8h-4c0,0.5,0.2,0.8,0.4,1.1c0.3,0.3,0.6,0.4,1.1,0.4c0.4,0,0.7,0,1-0.1
					c0.3-0.1,0.7-0.2,1-0.4v1.3c-0.3,0.1-0.6,0.3-0.9,0.3C163.4,136.6,163,136.6,162.6,136.6z M162.3,131.4c-0.4,0-0.6,0.1-0.8,0.3
					c-0.2,0.2-0.3,0.5-0.3,1h2.3c0-0.4-0.1-0.7-0.3-1C163,131.6,162.7,131.4,162.3,131.4z"/>
			</g>
			<g>
				<path d="M174.2,130.3c0,0.5-0.2,0.9-0.5,1.3c-0.3,0.4-0.7,0.6-1.3,0.7v0c0.6,0.1,1.1,0.3,1.5,0.6c0.3,0.3,0.5,0.7,0.5,1.3
					c0,0.8-0.3,1.4-0.8,1.8c-0.6,0.4-1.4,0.6-2.4,0.6c-0.9,0-1.6-0.1-2.3-0.4v-1.4c0.3,0.2,0.7,0.3,1,0.4c0.4,0.1,0.7,0.1,1.1,0.1
					c0.6,0,1-0.1,1.2-0.3c0.3-0.2,0.4-0.5,0.4-0.9c0-0.4-0.2-0.6-0.5-0.8c-0.3-0.2-0.8-0.2-1.5-0.2h-0.6v-1.3h0.6
					c0.6,0,1.1-0.1,1.4-0.2c0.3-0.2,0.4-0.4,0.4-0.8c0-0.6-0.4-0.9-1.1-0.9c-0.3,0-0.5,0-0.8,0.1c-0.3,0.1-0.6,0.2-0.9,0.5l-0.8-1.2
					c0.7-0.5,1.6-0.8,2.6-0.8c0.8,0,1.5,0.2,2,0.5C174,129.2,174.2,129.7,174.2,130.3z"/>
			</g>
		</g>
		<g>
			<g>
				<path d="M365.3,136.1h-6V135l3.8-5.5h-3.7v-1.4h5.8v1.1l-3.8,5.5h3.9V136.1z"/>
			</g>
			<g>
				<path d="M372,133c0,1-0.3,1.8-0.8,2.3c-0.5,0.6-1.3,0.8-2.2,0.8c-0.6,0-1.1-0.1-1.6-0.4c-0.5-0.3-0.8-0.6-1-1.1
					c-0.2-0.5-0.4-1-0.4-1.7c0-1,0.3-1.8,0.8-2.3c0.5-0.6,1.3-0.8,2.2-0.8c0.6,0,1.1,0.1,1.6,0.4c0.4,0.3,0.8,0.6,1,1.1
					C371.9,131.8,372,132.4,372,133z M367.8,133c0,0.6,0.1,1.1,0.3,1.4c0.2,0.3,0.5,0.5,1,0.5c0.4,0,0.8-0.2,1-0.5
					c0.2-0.3,0.3-0.8,0.3-1.4c0-0.6-0.1-1.1-0.3-1.4c-0.2-0.3-0.5-0.5-1-0.5c-0.4,0-0.8,0.2-1,0.5C367.9,132,367.8,132.4,367.8,133z
					"/>
			</g>
			<g>
				<path d="M379,136.1h-1.7v-3.6c0-0.4-0.1-0.8-0.2-1c-0.2-0.2-0.4-0.3-0.8-0.3c-0.5,0-0.8,0.2-1,0.5c-0.2,0.3-0.3,0.8-0.3,1.6v2.9
					h-1.7V130h1.3l0.2,0.8h0.1c0.2-0.3,0.4-0.5,0.8-0.7c0.3-0.2,0.7-0.2,1.1-0.2c0.7,0,1.3,0.2,1.6,0.6c0.4,0.4,0.6,0.9,0.6,1.7
					V136.1z"/>
			</g>
			<g>
				<path d="M383.5,136.2c-1,0-1.8-0.3-2.3-0.8s-0.8-1.3-0.8-2.3c0-1,0.3-1.8,0.8-2.4c0.5-0.6,1.2-0.8,2.1-0.8c0.9,0,1.5,0.2,2,0.7
					c0.5,0.5,0.7,1.2,0.7,2v0.8h-4c0,0.5,0.2,0.8,0.4,1.1c0.3,0.3,0.6,0.4,1.1,0.4c0.4,0,0.7,0,1-0.1c0.3-0.1,0.7-0.2,1-0.4v1.3
					c-0.3,0.1-0.6,0.3-0.9,0.3C384.4,136.2,384,136.2,383.5,136.2z M383.3,131.1c-0.4,0-0.6,0.1-0.8,0.3c-0.2,0.2-0.3,0.5-0.3,1h2.3
					c0-0.4-0.1-0.7-0.3-1C383.9,131.2,383.7,131.1,383.3,131.1z"/>
			</g>
			<g>
				<path d="M395.2,129.9c0,0.5-0.2,0.9-0.5,1.3c-0.3,0.4-0.7,0.6-1.3,0.7v0c0.6,0.1,1.1,0.3,1.5,0.6c0.3,0.3,0.5,0.7,0.5,1.3
					c0,0.8-0.3,1.4-0.8,1.8c-0.6,0.4-1.4,0.6-2.4,0.6c-0.9,0-1.6-0.1-2.3-0.4v-1.4c0.3,0.2,0.7,0.3,1,0.4c0.4,0.1,0.7,0.1,1.1,0.1
					c0.6,0,1-0.1,1.2-0.3c0.3-0.2,0.4-0.5,0.4-0.9c0-0.4-0.2-0.6-0.5-0.8c-0.3-0.2-0.8-0.2-1.5-0.2h-0.6v-1.3h0.6
					c0.6,0,1.1-0.1,1.4-0.2c0.3-0.2,0.4-0.4,0.4-0.8c0-0.6-0.4-0.9-1.1-0.9c-0.3,0-0.5,0-0.8,0.1c-0.3,0.1-0.6,0.2-0.9,0.5l-0.8-1.2
					c0.7-0.5,1.6-0.8,2.6-0.8c0.8,0,1.5,0.2,2,0.5C395,128.8,395.2,129.3,395.2,129.9z"/>
			</g>
		</g>
		<g>
			<g>
				<g>
					<rect x="84.3" y="122" fill="#FBC200" width="5.3" height="1.3"/>
				</g>
				<g>
					<rect x="84.6" y="122.4" fill="#FBC200" width="4.6" height="0.6"/>
				</g>
				<g>
					<rect x="92.5" y="122" fill="#FBC200" width="5.3" height="1.3"/>
				</g>
				<g>
					<rect x="92.8" y="122.4" fill="#FBC200" width="4.6" height="0.6"/>
				</g>
				<g>
					<rect x="100.7" y="122" fill="#FBC200" width="5.3" height="1.3"/>
				</g>
				<g>
					<rect x="101" y="122.4" fill="#FBC200" width="4.6" height="0.6"/>
				</g>
				<g>
					<rect x="108.9" y="122" fill="#FBC200" width="5.3" height="1.3"/>
				</g>
				<g>
					<rect x="109.2" y="122.4" fill="#FBC200" width="4.6" height="0.6"/>
				</g>
				<g>
					<rect x="117" y="122" fill="#FBC200" width="5.3" height="1.3"/>
				</g>
				<g>
					<rect x="117.4" y="122.4" fill="#FBC200" width="4.6" height="0.6"/>
				</g>
				<g>
					<rect x="125.2" y="122" fill="#FBC200" width="5.3" height="1.3"/>
				</g>
				<g>
					<rect x="125.6" y="122.4" fill="#FBC200" width="4.6" height="0.6"/>
				</g>
				<g>
					<rect x="133.4" y="122" fill="#FBC200" width="5.3" height="1.3"/>
				</g>
				<g>
					<rect x="133.8" y="122.4" fill="#FBC200" width="4.6" height="0.6"/>
				</g>
				<g>
					<rect x="141.6" y="122" fill="#FBC200" width="5.3" height="1.3"/>
				</g>
				<g>
					<rect x="142" y="122.4" fill="#FBC200" width="4.6" height="0.6"/>
				</g>
				<g>
					<rect x="149.8" y="122" fill="#FBC200" width="5.3" height="1.3"/>
				</g>
				<g>
					<rect x="150.2" y="122.4" fill="#FBC200" width="4.6" height="0.6"/>
				</g>
			</g>
			<g>
				<g>
					<rect x="157.9" y="122" fill="#FBC200" width="5.3" height="1.3"/>
				</g>
				<g>
					<rect x="158.3" y="122.4" fill="#FBC200" width="4.6" height="0.6"/>
				</g>
				<g>
					<rect x="166.1" y="122" fill="#FBC200" width="5.3" height="1.3"/>
				</g>
				<g>
					<rect x="166.5" y="122.4" fill="#FBC200" width="4.6" height="0.6"/>
				</g>
				<g>
					<rect x="174.3" y="122" fill="#FBC200" width="5.3" height="1.3"/>
				</g>
				<g>
					<rect x="174.6" y="122.4" fill="#FBC200" width="4.6" height="0.6"/>
				</g>
				<g>
					<rect x="182.5" y="122" fill="#FBC200" width="5.3" height="1.3"/>
				</g>
				<g>
					<rect x="182.8" y="122.4" fill="#FBC200" width="4.6" height="0.6"/>
				</g>
				<g>
					<rect x="190.7" y="122" fill="#FBC200" width="5.3" height="1.3"/>
				</g>
				<g>
					<rect x="191" y="122.4" fill="#FBC200" width="4.6" height="0.6"/>
				</g>
				<g>
					<rect x="198.9" y="122" fill="#FBC200" width="5.3" height="1.3"/>
				</g>
				<g>
					<rect x="199.2" y="122.4" fill="#FBC200" width="4.6" height="0.6"/>
				</g>
				<g>
					<rect x="207.1" y="122" fill="#FBC200" width="5.3" height="1.3"/>
				</g>
				<g>
					<rect x="207.4" y="122.4" fill="#FBC200" width="4.6" height="0.6"/>
				</g>
				<g>
					<rect x="215.2" y="122" fill="#FBC200" width="5.3" height="1.3"/>
				</g>
				<g>
					<rect x="215.6" y="122.4" fill="#FBC200" width="4.6" height="0.6"/>
				</g>
				<g>
					<rect x="223.4" y="122" fill="#FBC200" width="5.3" height="1.3"/>
				</g>
				<g>
					<rect x="223.8" y="122.4" fill="#FBC200" width="4.6" height="0.6"/>
				</g>
			</g>
		</g>
		<g>
			<g>
				<g>
					<rect x="265.3" y="121.7" fill="#FBC200" width="5.3" height="1.3"/>
				</g>
				<g>
					<rect x="265.7" y="122.1" fill="#FBC200" width="4.6" height="0.6"/>
				</g>
				<g>
					<rect x="273.5" y="121.7" fill="#FBC200" width="5.3" height="1.3"/>
				</g>
				<g>
					<rect x="273.9" y="122.1" fill="#FBC200" width="4.6" height="0.6"/>
				</g>
				<g>
					<rect x="281.7" y="121.7" fill="#FBC200" width="5.3" height="1.3"/>
				</g>
				<g>
					<rect x="282.1" y="122.1" fill="#FBC200" width="4.6" height="0.6"/>
				</g>
				<g>
					<rect x="289.9" y="121.7" fill="#FBC200" width="5.3" height="1.3"/>
				</g>
				<g>
					<rect x="290.2" y="122.1" fill="#FBC200" width="4.6" height="0.6"/>
				</g>
				<g>
					<rect x="298.1" y="121.7" fill="#FBC200" width="5.3" height="1.3"/>
				</g>
				<g>
					<rect x="298.4" y="122.1" fill="#FBC200" width="4.6" height="0.6"/>
				</g>
				<g>
					<rect x="306.3" y="121.7" fill="#FBC200" width="5.3" height="1.3"/>
				</g>
				<g>
					<rect x="306.6" y="122.1" fill="#FBC200" width="4.6" height="0.6"/>
				</g>
				<g>
					<rect x="314.5" y="121.7" fill="#FBC200" width="5.3" height="1.3"/>
				</g>
				<g>
					<rect x="314.8" y="122.1" fill="#FBC200" width="4.6" height="0.6"/>
				</g>
				<g>
					<rect x="322.7" y="121.7" fill="#FBC200" width="5.3" height="1.3"/>
				</g>
				<g>
					<rect x="323" y="122.1" fill="#FBC200" width="4.6" height="0.6"/>
				</g>
				<g>
					<rect x="330.8" y="121.7" fill="#FBC200" width="5.3" height="1.3"/>
				</g>
				<g>
					<rect x="331.2" y="122.1" fill="#FBC200" width="4.6" height="0.6"/>
				</g>
			</g>
			<g>
				<g>
					<rect x="338.9" y="121.7" fill="#FBC200" width="5.3" height="1.3"/>
				</g>
				<g>
					<rect x="339.3" y="122.1" fill="#FBC200" width="4.6" height="0.6"/>
				</g>
				<g>
					<rect x="347.1" y="121.7" fill="#FBC200" width="5.3" height="1.3"/>
				</g>
				<g>
					<rect x="347.5" y="122.1" fill="#FBC200" width="4.6" height="0.6"/>
				</g>
				<g>
					<rect x="355.3" y="121.7" fill="#FBC200" width="5.3" height="1.3"/>
				</g>
				<g>
					<rect x="355.7" y="122.1" fill="#FBC200" width="4.6" height="0.6"/>
				</g>
				<g>
					<rect x="363.5" y="121.7" fill="#FBC200" width="5.3" height="1.3"/>
				</g>
				<g>
					<rect x="363.9" y="122.1" fill="#FBC200" width="4.6" height="0.6"/>
				</g>
				<g>
					<rect x="371.7" y="121.7" fill="#FBC200" width="5.3" height="1.3"/>
				</g>
				<g>
					<rect x="372.1" y="122.1" fill="#FBC200" width="4.6" height="0.6"/>
				</g>
				<g>
					<rect x="379.9" y="121.7" fill="#FBC200" width="5.3" height="1.3"/>
				</g>
				<g>
					<rect x="380.2" y="122.1" fill="#FBC200" width="4.6" height="0.6"/>
				</g>
				<g>
					<rect x="388.1" y="121.7" fill="#FBC200" width="5.3" height="1.3"/>
				</g>
				<g>
					<rect x="388.4" y="122.1" fill="#FBC200" width="4.6" height="0.6"/>
				</g>
				<g>
					<rect x="396.3" y="121.7" fill="#FBC200" width="5.3" height="1.3"/>
				</g>
				<g>
					<rect x="396.6" y="122.1" fill="#FBC200" width="4.6" height="0.6"/>
				</g>
				<g>
					<rect x="404.5" y="121.7" fill="#FBC200" width="5.3" height="1.3"/>
				</g>
				<g>
					<rect x="404.8" y="122.1" fill="#FBC200" width="4.6" height="0.6"/>
				</g>
			</g>
		</g>
		<g>
			<g>
				<g>
					<rect x="139.7" y="66" fill="#FBC200" width="1.3" height="5.3"/>
				</g>
				<g>
					<rect x="140" y="66.4" fill="#FBC200" width="0.6" height="4.6"/>
				</g>
				<g>
					<rect x="139.7" y="74.2" fill="#FBC200" width="1.3" height="5.3"/>
				</g>
				<g>
					<rect x="140" y="74.6" fill="#FBC200" width="0.6" height="4.6"/>
				</g>
				<g>
					<rect x="139.7" y="82.4" fill="#FBC200" width="1.3" height="5.3"/>
				</g>
				<g>
					<rect x="140" y="82.8" fill="#FBC200" width="0.6" height="4.6"/>
				</g>
				<g>
					<rect x="139.7" y="90.6" fill="#FBC200" width="1.3" height="5.3"/>
				</g>
				<g>
					<rect x="140" y="91" fill="#FBC200" width="0.6" height="4.6"/>
				</g>
				<g>
					<rect x="139.7" y="98.8" fill="#FBC200" width="1.3" height="5.3"/>
				</g>
				<g>
					<rect x="140" y="99.2" fill="#FBC200" width="0.6" height="4.6"/>
				</g>
				<g>
					<rect x="139.7" y="107" fill="#FBC200" width="1.3" height="5.3"/>
				</g>
				<g>
					<rect x="140" y="107.4" fill="#FBC200" width="0.6" height="4.6"/>
				</g>
				<g>
					<rect x="139.7" y="115.2" fill="#FBC200" width="1.3" height="5.3"/>
				</g>
				<g>
					<rect x="140" y="115.5" fill="#FBC200" width="0.6" height="4.6"/>
				</g>
			</g>
		</g>
		<g>
			<g>
				<g>
					<rect x="345.1" y="125.6" fill="#FBC200" width="1.3" height="5.3"/>
				</g>
				<g>
					<rect x="345.4" y="126" fill="#FBC200" width="0.6" height="4.6"/>
				</g>
				<g>
					<rect x="345.1" y="133.8" fill="#FBC200" width="1.3" height="5.3"/>
				</g>
				<g>
					<rect x="345.4" y="134.2" fill="#FBC200" width="0.6" height="4.6"/>
				</g>
			</g>
		</g>
	</g>
</g>
<g id="Multiple_Screens" display="none">
	<g display="inline">
		<g>
			<polygon fill="#FBC200" points="137.2,78.4 137.2,110.2 144.9,110.2 144.9,86.1 233.4,86.1 233.4,131.7 179.8,131.7 179.8,135.5 
				200.2,135.5 200.2,138.3 179.8,138.3 179.8,141.6 240.4,141.6 240.4,78.4 			"/>
		</g>
		<g>
			<path fill="#FBC200" d="M74,112.8v59.5v3.7h49.8h4.2h47.7h1.4v-63.2H74z M137,172.3h-22.8v-2.8H137V172.3z M170.2,166.1H81.7
				v-45.6h88.5V166.1z"/>
		</g>
		<g>
			<path fill="#FBC200" d="M315.5,112.8V176h0.7H366h4.3h49.1h0.7v-63.2H315.5z M379.4,172.3h-23.1v-2.8h23.1V172.3z M412.3,166.1
				h-89.7v-45.6h89.7V166.1z"/>
		</g>
		<g>
			<polygon fill="#FBC200" points="252.3,78.4 252.3,141.6 312.9,141.6 312.9,138.3 292.5,138.3 292.5,135.5 312.9,135.5 
				312.9,131.7 259.3,131.7 259.3,86.1 347.8,86.1 347.8,110.2 355.5,110.2 355.5,78.4 			"/>
		</g>
		<g>
			<g>
				<g>
					<path fill="#24211E" d="M302.2,124.4l-0.7-0.1c0.2-1.2,0.3-2.3,0.4-3.5l0.7,0.1C302.4,122,302.3,123.2,302.2,124.4z"/>
				</g>
			</g>
			<g>
				<g>
					<path fill="#24211E" d="M247,172.3c-1.1,0-2.3,0-3.4-0.1l0-0.7c2.3,0.1,4.6,0.1,6.8,0l0,0.7C249.4,172.2,248.2,172.3,247,172.3
						z M236.7,171.3c-2.3-0.4-4.5-1-6.7-1.7l0.2-0.7c2.2,0.7,4.4,1.3,6.6,1.7L236.7,171.3z M257.4,171.3l-0.1-0.7
						c2.2-0.4,4.5-1,6.6-1.7l0.2,0.7C261.9,170.3,259.7,170.9,257.4,171.3z M223.6,167.1c-2.1-1-4.1-2.1-6.1-3.3l0.4-0.6
						c1.9,1.2,3.9,2.3,6,3.3L223.6,167.1z M270.5,167.1l-0.3-0.6c2.1-1,4.1-2.1,6-3.3l0.4,0.6C274.7,165,272.6,166.1,270.5,167.1z
						 M211.9,159.8c-1.8-1.5-3.5-3-5.1-4.7l0.5-0.5c1.6,1.6,3.3,3.2,5,4.6L211.9,159.8z M282.2,159.7l-0.4-0.5c1.8-1.4,3.4-3,5-4.6
						l0.5,0.5C285.7,156.7,284,158.3,282.2,159.7z M202.3,149.8c-1.4-1.8-2.6-3.8-3.8-5.8l0.6-0.3c1.1,2,2.4,3.9,3.7,5.7
						L202.3,149.8z M291.8,149.8l-0.6-0.4c1.4-1.8,2.6-3.8,3.7-5.7l0.6,0.3C294.4,146,293.1,147.9,291.8,149.8z M195.5,137.8
						c-0.9-2.1-1.6-4.3-2.2-6.6l0.7-0.2c0.6,2.2,1.3,4.4,2.2,6.5L195.5,137.8z M298.6,137.7l-0.6-0.3c0.9-2.1,1.6-4.3,2.2-6.5
						l0.7,0.2C300.2,133.4,299.4,135.6,298.6,137.7z"/>
				</g>
			</g>
			<g>
				<g>
					<path fill="#24211E" d="M191.9,124.4c-0.2-1.2-0.3-2.3-0.4-3.5l0.7-0.1c0.1,1.2,0.2,2.3,0.4,3.5L191.9,124.4z"/>
				</g>
			</g>
			<g>
				<g>
					<g>
						<path fill="#24211E" d="M302.3,116.6c-0.8,2-2.2,4.4-3.6,5.8l3.4-1.1l3.3,1.4C304.1,121.2,303,118.6,302.3,116.6z"/>
					</g>
				</g>
			</g>
			<g>
				<g>
					<g>
						<path fill="#24211E" d="M191.7,116.6c0.8,2,2.2,4.4,3.6,5.8l-3.4-1.1l-3.3,1.4C189.9,121.2,191.1,118.6,191.7,116.6z"/>
					</g>
				</g>
			</g>
		</g>
		<g>
			<g>
				<g>
					<path fill="#24211E" d="M357.8,51.8l-0.1-0.7c1.2-0.2,2.3-0.3,3.5-0.4l0.1,0.7C360.1,51.5,359,51.6,357.8,51.8z"/>
				</g>
			</g>
			<g>
				<g>
					<path fill="#24211E" d="M350.9,159.9c-2.2-0.6-4.4-1.3-6.6-2.2l0.3-0.6c2.1,0.9,4.3,1.6,6.5,2.2L350.9,159.9z M338.1,154.7
						c-2-1.1-3.9-2.4-5.8-3.8l0.4-0.6c1.8,1.4,3.7,2.6,5.7,3.7L338.1,154.7z M327.1,146.4c-1.7-1.6-3.2-3.3-4.7-5.1l0.5-0.4
						c1.4,1.8,3,3.4,4.6,5L327.1,146.4z M318.3,135.7c-1.2-1.9-2.3-4-3.3-6.1l0.6-0.3c1,2.1,2.1,4.1,3.3,6L318.3,135.7z
						 M312.5,123.2c-0.7-2.2-1.3-4.4-1.7-6.7l0.7-0.1c0.4,2.2,1,4.5,1.7,6.6L312.5,123.2z M310,109.6c-0.1-1.1-0.1-2.3-0.1-3.4
						c0-1.2,0-2.3,0.1-3.5l0.7,0c-0.1,1.1-0.1,2.3-0.1,3.4c0,1.1,0,2.3,0.1,3.4L310,109.6z M311.5,96l-0.7-0.1
						c0.4-2.3,1-4.5,1.7-6.7l0.7,0.2C312.5,91.5,311.9,93.7,311.5,96z M315.7,83l-0.6-0.3c1-2.1,2.1-4.1,3.3-6.1l0.6,0.4
						C317.7,78.9,316.6,80.9,315.7,83z M322.9,71.5l-0.5-0.4c1.5-1.8,3-3.5,4.7-5.1l0.5,0.5C325.9,68,324.4,69.7,322.9,71.5z
						 M332.8,62l-0.4-0.6c1.9-1.4,3.8-2.6,5.8-3.8l0.3,0.6C336.5,59.4,334.6,60.7,332.8,62z M344.7,55.3l-0.3-0.6
						c2.1-0.9,4.3-1.6,6.6-2.2l0.2,0.7C348.9,53.7,346.8,54.5,344.7,55.3z"/>
				</g>
			</g>
			<g>
				<g>
					<path fill="#24211E" d="M361.2,161.7c-1.2-0.1-2.4-0.2-3.5-0.4l0.1-0.7c1.1,0.2,2.3,0.3,3.5,0.4L361.2,161.7z"/>
				</g>
			</g>
			<g>
				<g>
					<g>
						<path fill="#24211E" d="M365.5,50.9c-2-0.6-4.6-1.8-6.1-3.1l1.4,3.3l-1.1,3.4C361.1,53.1,363.5,51.7,365.5,50.9z"/>
					</g>
				</g>
			</g>
			<g>
				<g>
					<g>
						<path fill="#24211E" d="M365.5,161.5c-2,0.6-4.6,1.8-6.1,3.1l1.4-3.3l-1.1-3.4C361.1,159.3,363.5,160.7,365.5,161.5z"/>
					</g>
				</g>
			</g>
		</g>
		<g>
			<polygon fill="#FBC200" points="310.6,30 310.6,76.6 318.1,76.6 318.1,38.2 412.2,38.2 412.2,86.8 396,86.8 361.2,86.8 
				357.7,86.8 357.7,90.2 376.9,90.2 376.9,93 357.7,93 357.7,97.3 361.2,97.3 396,97.3 420.4,97.3 420.4,30 			"/>
		</g>
		<g>
			<polygon fill="#FBC200" points="73.6,30.4 73.6,96.9 81.3,96.9 81.3,96.9 135.3,96.9 135.3,93 116.4,93 116.4,90.2 135.3,90.2 
				135.3,86.6 132.1,86.6 132.1,86.5 81.7,86.5 81.7,38.5 174.7,38.5 174.7,76.4 182.1,76.4 182.1,30.4 			"/>
		</g>
		<g>
			<g>
				<g>
					<path fill="#24211E" d="M136.3,51.8c-1.1-0.2-2.3-0.3-3.5-0.4l0.1-0.7c1.2,0.1,2.4,0.2,3.5,0.4L136.3,51.8z"/>
				</g>
			</g>
			<g>
				<g>
					<path fill="#24211E" d="M143.2,159.9l-0.2-0.7c2.2-0.6,4.4-1.3,6.5-2.2l0.3,0.6C147.6,158.6,145.4,159.3,143.2,159.9z
						 M155.9,154.7l-0.3-0.6c2-1.1,3.9-2.4,5.7-3.7l0.4,0.6C159.9,152.3,157.9,153.5,155.9,154.7z M167,146.4l-0.5-0.5
						c1.6-1.6,3.2-3.3,4.6-5l0.5,0.4C170.3,143.1,168.7,144.8,167,146.4z M175.8,135.7l-0.6-0.4c1.2-1.9,2.3-3.9,3.3-6l0.6,0.3
						C178.1,131.7,177,133.8,175.8,135.7z M181.6,123.2l-0.7-0.2c0.7-2.2,1.3-4.4,1.7-6.6l0.7,0.1
						C182.9,118.8,182.3,121,181.6,123.2z M184.1,109.6l-0.7,0c0.1-1.1,0.1-2.3,0.1-3.4c0-1.1,0-2.3-0.1-3.4l0.7,0
						c0.1,1.1,0.1,2.3,0.1,3.5C184.2,107.3,184.2,108.5,184.1,109.6z M182.6,96c-0.4-2.2-1-4.5-1.7-6.6l0.7-0.2
						c0.7,2.2,1.3,4.4,1.7,6.7L182.6,96z M178.4,83c-1-2.1-2.1-4.1-3.3-6l0.6-0.4c1.2,1.9,2.3,4,3.3,6.1L178.4,83z M171.2,71.5
						c-1.4-1.8-3-3.4-4.6-5l0.5-0.5c1.7,1.6,3.2,3.3,4.7,5.1L171.2,71.5z M161.3,62c-1.8-1.4-3.8-2.6-5.7-3.7l0.3-0.6
						c2,1.1,4,2.4,5.8,3.8L161.3,62z M149.4,55.3c-2.1-0.9-4.3-1.6-6.5-2.2l0.2-0.7c2.2,0.6,4.4,1.3,6.6,2.2L149.4,55.3z"/>
				</g>
			</g>
			<g>
				<g>
					<path fill="#24211E" d="M132.8,161.7l-0.1-0.7c1.2-0.1,2.3-0.2,3.5-0.4l0.1,0.7C135.2,161.5,134,161.6,132.8,161.7z"/>
				</g>
			</g>
			<g>
				<g>
					<g>
						<path fill="#24211E" d="M128.6,50.9c2,0.8,4.4,2.2,5.8,3.6l-1.1-3.4l1.4-3.3C133.1,49.1,130.6,50.2,128.6,50.9z"/>
					</g>
				</g>
			</g>
			<g>
				<g>
					<g>
						<path fill="#24211E" d="M128.6,161.5c2-0.8,4.4-2.2,5.8-3.6l-1.1,3.4l1.4,3.3C133.1,163.3,130.6,162.1,128.6,161.5z"/>
					</g>
				</g>
			</g>
		</g>
	</g>
</g>
<g id="Easy_Edit" display="none">
	<g display="inline">
		<g>
			<g>
				
					<rect x="150.2" y="34.1" transform="matrix(0.5441 -0.839 0.839 0.5441 17.573 162.7872)" fill="#FBC200" width="16.7" height="62.2"/>
			</g>
			<g>
				<path fill="#FBC200" d="M197.5,43.8l-35.4-23c-4.4-2.9-10.4-1.6-13.4,2.7l-9.1,14l51.8,33.6l9.1-14
					C203.2,52.7,201.9,46.7,197.5,43.8z"/>
			</g>
			<g>
				<polygon fill="#FBC200" points="143.5,70.8 105.3,129.8 105.1,130 97.1,142.4 97.3,142.5 108.3,142.8 108.3,142.8 113,152.7 
					113.1,152.7 121.1,140.3 121.3,140.2 159.5,81.2 				"/>
			</g>
			<g>
				<path fill="#FBC200" d="M160.3,89.3L160.3,89.3c-14.2,22-28.4,44.1-42.7,66.1c-0.2,0.3-0.6,0.9-0.8,1l-21.6,11.9l0,0l-0.9,0.5
					c-2.2,1.2-3.8,0.2-3.7-2.3l0.1-1.1l0,0l0.5-7.7c0,0,0-0.1,0-0.1l1.1-17.1l0,0c0,0,0-0.1,0-0.1c0-0.7,0.3-1.5,0.7-2.1
					c14.4-22.4,28.5-44.2,40.7-63.1l0,0c1-1.5,1.9-2.9,2.8-4.4c0,0,0,0,0,0l2-3.2L126,59.4l-0.3-0.2l-47.4,73.1
					c-0.8,1.2-1.2,2.7-1.3,4.1c-0.7,14.6-1.3,28.9-2,44.6c-0.1,2.6,0.7,4.7,2.3,6.3c2.1,2,4.5,2.8,7.2,2.4c0.9-0.2,1.9-0.5,2.8-1
					c3.7-1.8,7.3-3.7,11-5.6c8.3-4.2,17-8.6,25.5-12.8c3.4-1.7,6-4,8.1-7.2l0.2-0.1l40.6-62.6l4.8-7.4l0.1-0.1l-13.9-9L160.3,89.3z"
					/>
			</g>
		</g>
		<g>
			<g>
				<g>
					<path fill="#FBC200" d="M334.4,185.3c-46.6,0-84.6-37.9-84.6-84.6s37.9-84.6,84.6-84.6s84.6,37.9,84.6,84.6
						S381,185.3,334.4,185.3z M334.4,33.2c-37.2,0-67.5,30.3-67.5,67.5s30.3,67.5,67.5,67.5s67.5-30.3,67.5-67.5
						S371.6,33.2,334.4,33.2z"/>
				</g>
			</g>
		</g>
		<g>
			<g>
				<path fill="#FBC200" d="M334.4,52.1c-1.1,0-2-0.9-2-2v-8c0-1.1,0.9-2,2-2s2,0.9,2,2v8C336.3,51.2,335.4,52.1,334.4,52.1z"/>
			</g>
			<g>
				<path fill="#FBC200" d="M334.4,161.4c-1.1,0-2-0.9-2-2v-8c0-1.1,0.9-2,2-2s2,0.9,2,2v8C336.3,160.5,335.4,161.4,334.4,161.4z"/>
			</g>
		</g>
		<g>
			<circle fill="#FBC200" cx="334.3" cy="100.8" r="6.9"/>
		</g>
		<g>
			<g>
				<path fill="#FBC200" d="M393,102.7h-8c-1.1,0-2-0.9-2-2s0.9-2,2-2h8c1.1,0,2,0.9,2,2S394.1,102.7,393,102.7z"/>
			</g>
			<g>
				<path fill="#FBC200" d="M283.7,102.7h-8c-1.1,0-2-0.9-2-2s0.9-2,2-2h8c1.1,0,2,0.9,2,2S284.8,102.7,283.7,102.7z"/>
			</g>
		</g>
		<g>
			<g>
				<path fill="#FBC200" d="M375.8,144.2c-0.5,0-1-0.2-1.4-0.6l-5.7-5.7c-0.8-0.8-0.8-2,0-2.8c0.8-0.8,2-0.8,2.8,0l5.7,5.7
					c0.8,0.8,0.8,2,0,2.8C376.8,144,376.3,144.2,375.8,144.2z"/>
			</g>
			<g>
				<path fill="#FBC200" d="M298.6,66.9c-0.5,0-1-0.2-1.4-0.6l-5.7-5.7c-0.8-0.8-0.8-2,0-2.8c0.8-0.8,2-0.8,2.8,0l5.7,5.7
					c0.8,0.8,0.8,2,0,2.8C299.6,66.8,299.1,66.9,298.6,66.9z"/>
			</g>
		</g>
		<g>
			<g>
				<path fill="#FBC200" d="M292.9,144.2c-0.5,0-1-0.2-1.4-0.6c-0.8-0.8-0.8-2,0-2.8l5.7-5.7c0.8-0.8,2-0.8,2.8,0
					c0.8,0.8,0.8,2,0,2.8l-5.7,5.7C293.9,144,293.4,144.2,292.9,144.2z"/>
			</g>
			<g>
				<path fill="#FBC200" d="M370.1,66.9c-0.5,0-1-0.2-1.4-0.6c-0.8-0.8-0.8-2,0-2.8l5.7-5.7c0.8-0.8,2-0.8,2.8,0
					c0.8,0.8,0.8,2,0,2.8l-5.7,5.7C371.2,66.8,370.6,66.9,370.1,66.9z"/>
			</g>
		</g>
		<g>
			<path fill="#FBC200" d="M354.6,123.2c-0.8,0-1.6-0.3-2.2-0.9l-20.2-19.2c-0.6-0.6-1-1.5-1-2.4V62.1c0-1.8,1.5-3.2,3.2-3.2
				s3.2,1.5,3.2,3.2v37.2l19.2,18.2c1.3,1.2,1.4,3.3,0.1,4.6C356.3,122.9,355.4,123.2,354.6,123.2z"/>
		</g>
		<g>
			<path fill="#FBC200" d="M298.6,119.2c-0.5,0-0.9-0.3-1.1-0.7c-0.3-0.6,0-1.3,0.6-1.6l36.8-17.2c0.6-0.3,1.3,0,1.6,0.6
				c0.3,0.6,0,1.3-0.6,1.6l-36.8,17.2C298.9,119.2,298.7,119.2,298.6,119.2z"/>
		</g>
		<g>
			<circle fill="#FFFFFF" cx="334.3" cy="100.8" r="2.1"/>
		</g>
	</g>
</g>
<g id="Cloud" display="none">
	<g display="inline">
		<g>
			<g>
				<path fill="#FBC200" d="M229.9,169.3h-111c-24.9,0-45.1-20.2-45.1-45.1c0-24.6,19.8-44.6,44.2-45.1c3.2-10.9,9.4-20.7,18.1-28.2
					c10.6-9.1,24.2-14.2,38.3-14.2c14.7,0,28.8,5.5,39.6,15.4c8.9,8.1,15,18.7,17.7,30.3c23.1,0.9,41.7,20.1,41.7,43.4
					C273.4,149.8,253.9,169.3,229.9,169.3z M118.9,94.7c-16.2,0-29.4,13.2-29.4,29.4c0,16.2,13.2,29.4,29.4,29.4h111
					c15.3,0,27.8-12.5,27.8-27.8S245.3,98,229.9,98c-1.1,0-2.3,0.1-3.8,0.3l-8.1,1.1l-0.8-8.1c-2.1-22.2-20.6-38.9-42.9-38.9
					c-21.2,0-39.1,15.2-42.5,36.2l-1.2,7.6l-7.6-1.1C121.5,94.8,120.2,94.7,118.9,94.7z"/>
			</g>
		</g>
		<g>
			<g>
				<path fill="#FBC200" d="M391.2,168.2h-69.4c-16.5,0-30-13.5-30-30c0-15.9,12.4-28.9,28.1-29.9c5.1-15.7,19.6-26.5,36.6-26.5
					c17.8,0,32.9,11.9,37.3,28.6c14.8,1.3,26.4,13.8,26.4,28.9C420.2,155.2,407.2,168.2,391.2,168.2z M321.8,121.6
					c-9.1,0-16.6,7.4-16.6,16.6c0,9.1,7.4,16.6,16.6,16.6h69.4c8.6,0,15.5-7,15.5-15.5s-7-15.5-15.5-15.5c-0.6,0-1.3,0.1-2.1,0.2
					l-6.9,0.9l-0.7-6.9c-1.2-12.9-12-22.7-25-22.7c-12.4,0-22.8,8.9-24.8,21.1l-1.1,6.5l-6.5-0.9
					C323.3,121.6,322.5,121.6,321.8,121.6z"/>
			</g>
		</g>
	</g>
</g>
<g id="Screen_Size" display="none">
	<g display="inline">
		<path fill="#FBC200" d="M77,1.5v203.8h121.5V1.5H77z M150.5,200.4H125v-3.1h25.4V200.4z M185.2,192H90.3V14.8h94.9V192z"/>
	</g>
	<g display="inline">
		<path fill="#FBC200" d="M218.4,83.8v121.5h203.8V83.8H218.4z M333,200.4h-25.4v-3.1H333V200.4z M408.8,192H231.7V97.1h177.2V192z"
			/>
	</g>
</g>
</svg>
